HIERARCHY
ROOT Hips
{
 OFFSET 0.000000 0.000000 0.000000
 CHANNELS 6 Xposition Yposition Zposition Yrotation Xrotation Zrotation
 JOINT Chest
 {
  OFFSET 0.000000 9.303000 0.001900
  CHANNELS 3 Yrotation Xrotation Zrotation
  JOINT Chest2
  {
   OFFSET 0.000000 9.301100 -0.003900
   CHANNELS 3 Yrotation Xrotation Zrotation
   JOINT Chest3
   {
    OFFSET 0.000000 9.262800 0.000000
    CHANNELS 3 Yrotation Xrotation Zrotation
    JOINT Chest4
    {
     OFFSET 0.000000 9.253300 0.000000
     CHANNELS 3 Yrotation Xrotation Zrotation
     JOINT Neck
     {
      OFFSET 0.000000 14.010300 0.000000
      CHANNELS 3 Yrotation Xrotation Zrotation
      JOINT Head
      {
       OFFSET 0.000000 8.657600 -0.008300
       CHANNELS 3 Yrotation Xrotation Zrotation
       End Site
       {
        OFFSET 0.000000 16.540200 -0.004400
       }
      }
     }
     JOINT RightCollar
     {
      OFFSET -2.834100 9.267700 0.000000
      CHANNELS 3 Yrotation Xrotation Zrotation
      JOINT RightShoulder
      {
       OFFSET -13.135200 0.000000 0.000000
       CHANNELS 3 Yrotation Xrotation Zrotation
       JOINT RightElbow
       {
        OFFSET 0.000000 -28.893500 0.000000
        CHANNELS 3 Yrotation Xrotation Zrotation
        JOINT RightWrist
        {
         OFFSET 0.000000 -23.344000 0.000000
         CHANNELS 3 Yrotation Xrotation Zrotation
         End Site
         {
          OFFSET 0.000000 -17.223000 0.000000
         }
        }
       }
      }
     }
     JOINT LeftCollar
     {
      OFFSET 2.834100 9.267700 0.000000
      CHANNELS 3 Yrotation Xrotation Zrotation
      JOINT LeftShoulder
      {
       OFFSET 13.135200 0.000000 0.000000
       CHANNELS 3 Yrotation Xrotation Zrotation
       JOINT LeftElbow
       {
        OFFSET 0.000000 -28.893500 0.000000
        CHANNELS 3 Yrotation Xrotation Zrotation
        JOINT LeftWrist
        {
         OFFSET 0.000000 -23.344000 0.000000
         CHANNELS 3 Yrotation Xrotation Zrotation
         End Site
         {
          OFFSET 0.000000 -17.223000 0.000000
         }
        }
       }
      }
     }
    }
   }
  }
 }
 JOINT RightHip
 {
  OFFSET -7.547200 -0.009500 -0.001000
  CHANNELS 3 Yrotation Xrotation Zrotation
  JOINT RightKnee
  {
   OFFSET 0.000000 -39.762800 0.000900
   CHANNELS 3 Yrotation Xrotation Zrotation
   JOINT RightAnkle
   {
    OFFSET 0.000000 -38.588200 0.001600
    CHANNELS 3 Yrotation Xrotation Zrotation
    JOINT RightToe
    {
     OFFSET 0.000000 -4.693300 10.419700
     CHANNELS 3 Yrotation Xrotation Zrotation
     End Site
     {
      OFFSET 0.000000 -1.379900 5.669300
     }
    }
   }
  }
 }
 JOINT LeftHip
 {
  OFFSET 7.547200 -0.009500 -0.001000
  CHANNELS 3 Yrotation Xrotation Zrotation
  JOINT LeftKnee
  {
   OFFSET 0.000000 -39.762800 0.000900
   CHANNELS 3 Yrotation Xrotation Zrotation
   JOINT LeftAnkle
   {
    OFFSET 0.000000 -38.588200 0.001600
    CHANNELS 3 Yrotation Xrotation Zrotation
    JOINT LeftToe
    {
     OFFSET 0.000000 -4.693300 10.419700
     CHANNELS 3 Yrotation Xrotation Zrotation
     End Site
     {
      OFFSET 0.000000 -1.379900 5.669300
     }
    }
   }
  }
 }
}
MOTION
Frames: 5
Frame Time: 0.008333
0.000000 82.880600 0.000000 0.000000 -5.767877 0.000000 0.000000 11.653817 0.000000 0.000000 -5.885947 0.000000 0.000000 -0.000000 0.000000 0.000000 -0.000000 0.000000 0.000000 12.528835 0.000000 0.000000 0.711642 0.000000 0.000000 -0.000000 0.000000 0.000000 0.000000 -90.000000 0.000000 -2.309062 0.000000 0.000000 2.309062 0.000000 0.000000 -0.000000 0.000000 0.000000 -0.000000 90.000000 0.000000 -2.309062 0.000000 0.000000 2.309062 0.000000 0.000000 8.520406 0.000000 0.000000 1.905762 0.000000 -0.000000 -4.658285 0.000000 0.000000 -0.000000 0.000000 0.000000 8.520406 0.000000 0.000000 1.905762 0.000000 -0.000000 -4.658285 0.000000 0.000000 -0.000000 0.000000
24.555335 45.864325 -9.665845 162.608052 -13.868106 0.090638 3.591369 8.803301 1.503426 0.201426 0.508828 0.068239 0.345405 0.878971 0.125351 3.327586 8.193804 1.396835 -1.896349 21.234976 -0.279070 -1.958575 -3.110897 0.132820 5.385022 4.266328 -5.099815 3.094955 -20.290532 -5.040460 -39.891859 -69.939712 43.090514 -13.426655 -6.241777 -30.607211 -13.584496 -1.248620 -5.592784 11.161651 -23.948604 12.285193 39.423801 -55.111301 -54.546905 9.869208 -2.507052 17.374754 -18.823943 -73.172365 15.356134 -128.031005 84.294578 -128.153473 -10.974973 -10.108018 -2.575497 -0.007872 -0.015218 -0.000931 -0.279294 -73.503551 22.741733 114.121908 78.705627 112.057973 -12.613095 -10.839682 2.452573 0.005724 0.012465 -0.004193
24.556683 45.863953 -9.666913 162.607127 -13.867532 0.084616 3.596579 8.804617 1.504494 0.199214 0.507458 0.071622 0.344937 0.878271 0.125355 3.331796 8.197687 1.391643 -1.891858 21.233223 -0.274910 -1.959287 -3.113012 0.137875 5.382307 4.260407 -5.091830 3.093775 -20.287200 -5.048928 -39.900142 -69.936562 43.101577 -13.429309 -6.244753 -30.609435 -13.590540 -1.247481 -5.588089 11.153391 -23.945359 12.295763 39.432078 -55.110217 -54.551581 9.865871 -2.492042 17.370824 -18.852921 -73.169929 15.374941 -128.133873 84.295732 -128.261821 -10.997789 -10.115616 -2.568973 -0.000615 -0.015758 0.001633 -0.312713 -73.504378 22.778255 114.137905 78.706473 112.071215 -12.612554 -10.833495 2.454113 0.005200 0.008112 -0.004617
24.557130 45.863331 -9.667890 162.602260 -13.863439 0.085201 3.601700 8.801051 1.504214 0.199877 0.509355 0.071573 0.343733 0.875626 0.125459 3.333386 8.201876 1.385676 -1.886946 21.229898 -0.270493 -1.946315 -3.107587 0.134348 5.381996 4.256412 -5.089182 3.086044 -20.283939 -5.049214 -39.908721 -69.936699 43.118306 -13.430225 -6.252157 -30.613880 -13.593375 -1.242548 -5.582474 11.148308 -23.946639 12.298879 39.430761 -55.109883 -54.548303 9.860582 -2.477972 17.368160 -18.862085 -73.171509 15.375935 -128.203425 84.299645 -128.336709 -11.073421 -10.113136 -2.561745 0.030269 -0.025094 0.011003 -0.316107 -73.509279 22.787769 114.153693 78.706220 112.085470 -12.617269 -10.849461 2.452636 0.008472 0.025874 -0.000186
24.554786 45.863197 -9.672328 162.615856 -13.874325 0.104701 3.586450 8.814887 1.481935 0.199050 0.511062 0.071881 0.345900 0.875927 0.124569 3.329163 8.200284 1.384134 -1.878919 21.232401 -0.270121 -1.946713 -3.107197 0.134341 5.387304 4.258794 -5.085473 3.082023 -20.285103 -5.059990 -39.925712 -69.934615 43.138022 -13.432150 -6.248647 -30.623011 -13.593475 -1.233985 -5.583630 11.145126 -23.952918 12.301492 39.407148 -55.109317 -54.530904 9.857775 -2.473484 17.369002 -18.799118 -73.168992 15.321602 -127.965796 84.277858 -128.068222 -11.590564 -10.155115 -2.510614 -0.014262 -0.012212 0.002718 -0.256146 -73.497103 22.712635 114.157582 78.706203 112.086444 -12.616509 -10.830311 2.452458 0.008483 0.007694 0.002020
